<svg xmlns="http://www.w3.org/2000/svg" xmlns:xlink="http://www.w3.org/1999/xlink" width="500" zoomAndPan="magnify" viewBox="0 0 375 374.999991" height="500" preserveAspectRatio="xMidYMid meet" version="1.0"><defs><g/></defs><rect x="-37.5" width="450" fill="#ffffff" y="-37.499999" height="449.999989" fill-opacity="1"/><rect x="-37.5" width="450" fill="#ffffff" y="-37.499999" height="449.999989" fill-opacity="1"/><rect x="-37.5" width="450" fill="#ffffff" y="-37.499999" height="449.999989" fill-opacity="1"/><g fill="#c770f0" fill-opacity="1"><g transform="translate(1.291513, 279.73129)"><g><path d="M 212.109375 -4.054688 L 109.433594 -268.175781 C 108.417969 -270.878906 103.691406 -270.878906 102.675781 -268.175781 L 0.335938 -4.054688 C -0.675781 -2.027344 0.675781 0 3.714844 0 L 49.988281 0 C 51.339844 0 53.027344 -0.675781 53.363281 -2.027344 L 106.054688 -152.664062 L 159.417969 -2.027344 C 159.757812 -0.675781 161.445312 0 162.460938 0 L 209.070312 0 C 211.433594 0 213.121094 -2.027344 212.109375 -4.054688 Z M 212.109375 -4.054688 "/></g></g></g><g fill="#c770f0" fill-opacity="1"><g transform="translate(152.461777, 366.127074)"><g><path d="M 142.171875 -221.953125 L 106.375 -122.058594 L 53.1875 -270.710938 C 52.847656 -272.074219 51.484375 -272.753906 49.777344 -272.753906 L 3.410156 -272.753906 C 0.683594 -272.753906 -0.683594 -270.710938 0.339844 -268.664062 L 102.964844 -1.703125 C 104.328125 0.683594 108.421875 0.683594 109.441406 -1.703125 L 194.679688 -221.953125 Z M 142.171875 -221.953125 "/></g></g></g><g fill="#c770f0" fill-opacity="1"><g transform="translate(41.32381, 324.2028)"><g><path d="M 17.765625 -5.359375 L 17.765625 0 L 1.78125 0 L 1.78125 -23.203125 L 17.421875 -23.203125 L 17.421875 -18.015625 L 7.515625 -18.015625 L 7.515625 -14.171875 L 16.0625 -14.171875 L 16.0625 -9.359375 L 7.515625 -9.359375 L 7.515625 -5.359375 Z M 17.765625 -5.359375 "/></g></g></g><g fill="#c770f0" fill-opacity="1"><g transform="translate(80.171689, 324.2028)"><g><path d="M 16.578125 -5.359375 L 16.578125 0 L 1.78125 0 L 1.78125 -23.203125 L 7.515625 -23.203125 L 7.515625 -5.359375 Z M 16.578125 -5.359375 "/></g></g></g><g fill="#c770f0" fill-opacity="1"><g transform="translate(117.391739, 324.2028)"><g><path d="M 10.578125 -8.65625 L 5.890625 -9.765625 C 4.015625 -10.210938 2.734375 -10.890625 2.046875 -11.796875 C 1.367188 -12.710938 1.03125 -14.019531 1.03125 -15.71875 C 1.03125 -18.414062 1.738281 -20.394531 3.15625 -21.65625 C 4.582031 -22.925781 6.785156 -23.5625 9.765625 -23.5625 C 11.003906 -23.5625 12.101562 -23.507812 13.0625 -23.40625 C 14.019531 -23.3125 14.90625 -23.144531 15.71875 -22.90625 L 15.71875 -17.765625 C 13.84375 -18.078125 12.550781 -18.257812 11.84375 -18.3125 C 11.144531 -18.363281 10.414062 -18.390625 9.65625 -18.390625 C 8.625 -18.390625 7.875 -18.21875 7.40625 -17.875 C 6.9375 -17.53125 6.703125 -16.945312 6.703125 -16.125 C 6.703125 -15.738281 6.773438 -15.4375 6.921875 -15.21875 C 7.066406 -15.007812 7.347656 -14.859375 7.765625 -14.765625 L 12.203125 -13.734375 C 13.492188 -13.429688 14.421875 -13.140625 14.984375 -12.859375 C 15.554688 -12.578125 16.015625 -12.210938 16.359375 -11.765625 C 16.753906 -11.296875 17.039062 -10.691406 17.21875 -9.953125 C 17.40625 -9.210938 17.5 -8.3125 17.5 -7.25 C 17.5 -4.5625 16.78125 -2.617188 15.34375 -1.421875 C 13.914062 -0.222656 11.695312 0.375 8.6875 0.375 C 7.164062 0.375 5.710938 0.28125 4.328125 0.09375 C 2.941406 -0.09375 1.867188 -0.320312 1.109375 -0.59375 L 1.109375 -6.03125 C 2.097656 -5.707031 3.269531 -5.453125 4.625 -5.265625 C 5.976562 -5.085938 7.332031 -5 8.6875 -5 C 9.78125 -5 10.535156 -5.132812 10.953125 -5.40625 C 11.367188 -5.675781 11.578125 -6.21875 11.578125 -7.03125 C 11.578125 -7.550781 11.507812 -7.925781 11.375 -8.15625 C 11.238281 -8.394531 10.972656 -8.5625 10.578125 -8.65625 Z M 10.578125 -8.65625 "/></g></g></g><g fill="#c770f0" fill-opacity="1"><g transform="translate(155.64767, 324.2028)"><g><path d="M 7.515625 0 L 1.78125 0 L 1.78125 -23.203125 L 7.515625 -23.203125 L 7.515625 -14.359375 L 15.65625 -14.359375 L 15.65625 -23.203125 L 21.390625 -23.203125 L 21.390625 0 L 15.65625 0 L 15.65625 -9.171875 L 7.515625 -9.171875 Z M 7.515625 0 "/></g></g></g><g fill="#c770f0" fill-opacity="1"><g transform="translate(230.847484, 136.986524)"><g><path d="M 18.828125 -23.203125 L 18.828125 -18.015625 L 12.5 -18.015625 L 12.5 0 L 6.765625 0 L 6.765625 -18.015625 L 0.4375 -18.015625 L 0.4375 -23.203125 Z M 18.828125 -23.203125 "/></g></g></g><g fill="#c770f0" fill-opacity="1"><g transform="translate(252.009407, 136.986524)"><g><path d="M 17.765625 -5.359375 L 17.765625 0 L 1.78125 0 L 1.78125 -23.203125 L 17.421875 -23.203125 L 17.421875 -18.015625 L 7.515625 -18.015625 L 7.515625 -14.171875 L 16.0625 -14.171875 L 16.0625 -9.359375 L 7.515625 -9.359375 L 7.515625 -5.359375 Z M 17.765625 -5.359375 "/></g></g></g><g fill="#c770f0" fill-opacity="1"><g transform="translate(272.579396, 136.986524)"><g><path d="M 14.90625 -8.625 L 10.921875 -8.625 L 10.921875 -13.25 L 20.28125 -13.25 L 20.28125 -1.03125 C 19.582031 -0.71875 18.34375 -0.40625 16.5625 -0.09375 C 14.789062 0.21875 13.179688 0.375 11.734375 0.375 C 7.710938 0.375 4.914062 -0.550781 3.34375 -2.40625 C 1.78125 -4.257812 1 -7.332031 1 -11.625 C 1 -15.757812 1.910156 -18.78125 3.734375 -20.6875 C 5.554688 -22.601562 8.46875 -23.5625 12.46875 -23.5625 C 13.925781 -23.5625 15.226562 -23.53125 16.375 -23.46875 C 17.519531 -23.414062 18.398438 -23.328125 19.015625 -23.203125 L 19.015625 -18.171875 C 18.203125 -18.242188 17.234375 -18.296875 16.109375 -18.328125 C 14.992188 -18.367188 13.78125 -18.390625 12.46875 -18.390625 C 11.0625 -18.390625 10.019531 -18.265625 9.34375 -18.015625 C 8.664062 -17.773438 8.15625 -17.34375 7.8125 -16.71875 C 7.488281 -16.226562 7.257812 -15.566406 7.125 -14.734375 C 6.988281 -13.910156 6.921875 -12.875 6.921875 -11.625 C 6.921875 -10.414062 6.976562 -9.398438 7.09375 -8.578125 C 7.21875 -7.765625 7.421875 -7.113281 7.703125 -6.625 C 8.046875 -5.957031 8.53125 -5.488281 9.15625 -5.21875 C 9.78125 -4.945312 10.757812 -4.8125 12.09375 -4.8125 C 12.539062 -4.8125 13.003906 -4.828125 13.484375 -4.859375 C 13.960938 -4.898438 14.4375 -4.957031 14.90625 -5.03125 Z M 14.90625 -8.625 "/></g></g></g><g fill="#c770f0" fill-opacity="1"><g transform="translate(295.850099, 136.986524)"><g><path d="M 17.765625 -5.359375 L 17.765625 0 L 1.78125 0 L 1.78125 -23.203125 L 17.421875 -23.203125 L 17.421875 -18.015625 L 7.515625 -18.015625 L 7.515625 -14.171875 L 16.0625 -14.171875 L 16.0625 -9.359375 L 7.515625 -9.359375 L 7.515625 -5.359375 Z M 17.765625 -5.359375 "/></g></g></g><g fill="#c770f0" fill-opacity="1"><g transform="translate(316.420086, 136.986524)"><g><path d="M 14.90625 -8.625 L 10.921875 -8.625 L 10.921875 -13.25 L 20.28125 -13.25 L 20.28125 -1.03125 C 19.582031 -0.71875 18.34375 -0.40625 16.5625 -0.09375 C 14.789062 0.21875 13.179688 0.375 11.734375 0.375 C 7.710938 0.375 4.914062 -0.550781 3.34375 -2.40625 C 1.78125 -4.257812 1 -7.332031 1 -11.625 C 1 -15.757812 1.910156 -18.78125 3.734375 -20.6875 C 5.554688 -22.601562 8.46875 -23.5625 12.46875 -23.5625 C 13.925781 -23.5625 15.226562 -23.53125 16.375 -23.46875 C 17.519531 -23.414062 18.398438 -23.328125 19.015625 -23.203125 L 19.015625 -18.171875 C 18.203125 -18.242188 17.234375 -18.296875 16.109375 -18.328125 C 14.992188 -18.367188 13.78125 -18.390625 12.46875 -18.390625 C 11.0625 -18.390625 10.019531 -18.265625 9.34375 -18.015625 C 8.664062 -17.773438 8.15625 -17.34375 7.8125 -16.71875 C 7.488281 -16.226562 7.257812 -15.566406 7.125 -14.734375 C 6.988281 -13.910156 6.921875 -12.875 6.921875 -11.625 C 6.921875 -10.414062 6.976562 -9.398438 7.09375 -8.578125 C 7.21875 -7.765625 7.421875 -7.113281 7.703125 -6.625 C 8.046875 -5.957031 8.53125 -5.488281 9.15625 -5.21875 C 9.78125 -4.945312 10.757812 -4.8125 12.09375 -4.8125 C 12.539062 -4.8125 13.003906 -4.828125 13.484375 -4.859375 C 13.960938 -4.898438 14.4375 -4.957031 14.90625 -5.03125 Z M 14.90625 -8.625 "/></g></g></g><g fill="#c770f0" fill-opacity="1"><g transform="translate(339.690793, 136.986524)"><g><path d="M 21.796875 -23.203125 L 21.796875 0 L 16.3125 0 L 7.140625 -13.390625 L 7.140625 0 L 1.78125 0 L 1.78125 -23.203125 L 7.21875 -23.203125 L 16.421875 -9.28125 L 16.421875 -23.203125 Z M 21.796875 -23.203125 "/></g></g></g></svg>